<mxfile host="app.diagrams.net" agent="Mozilla/5.0 (Windows NT 10.0; Win64; x64) AppleWebKit/537.36 (KHTML, like Gecko) Chrome/137.0.0.0 Safari/537.36" version="28.2.3">
  <diagram name="Page-1" id="B36CQA4Izouf3L1B5QQA">
    <mxGraphModel dx="872" dy="473" grid="1" gridSize="10" guides="1" tooltips="1" connect="1" arrows="1" fold="1" page="1" pageScale="1" pageWidth="827" pageHeight="1169" math="0" shadow="0">
      <root>
        <mxCell id="0" />
        <mxCell id="1" parent="0" />
        <mxCell id="v_fGqSHIE8mmQ_CK-ytb-3" value="" style="ellipse;html=1;shape=startState;fillColor=#000000;strokeColor=#000000;" vertex="1" parent="1">
          <mxGeometry x="400" y="30" width="30" height="30" as="geometry" />
        </mxCell>
        <mxCell id="v_fGqSHIE8mmQ_CK-ytb-4" value="" style="edgeStyle=orthogonalEdgeStyle;html=1;verticalAlign=bottom;endArrow=open;endSize=8;strokeColor=#000000;rounded=0;" edge="1" source="v_fGqSHIE8mmQ_CK-ytb-3" parent="1">
          <mxGeometry relative="1" as="geometry">
            <mxPoint x="415" y="120" as="targetPoint" />
          </mxGeometry>
        </mxCell>
        <mxCell id="v_fGqSHIE8mmQ_CK-ytb-5" value="&lt;div&gt;Login&lt;/div&gt;" style="rounded=1;whiteSpace=wrap;html=1;" vertex="1" parent="1">
          <mxGeometry x="354" y="120" width="136" height="60" as="geometry" />
        </mxCell>
        <mxCell id="v_fGqSHIE8mmQ_CK-ytb-6" value="" style="rhombus;whiteSpace=wrap;html=1;" vertex="1" parent="1">
          <mxGeometry x="382" y="230" width="80" height="80" as="geometry" />
        </mxCell>
        <mxCell id="v_fGqSHIE8mmQ_CK-ytb-7" value="Dashboard" style="rounded=1;whiteSpace=wrap;html=1;" vertex="1" parent="1">
          <mxGeometry x="190" y="340" width="120" height="60" as="geometry" />
        </mxCell>
        <mxCell id="v_fGqSHIE8mmQ_CK-ytb-8" value="Error message" style="rounded=1;whiteSpace=wrap;html=1;" vertex="1" parent="1">
          <mxGeometry x="540" y="340" width="120" height="60" as="geometry" />
        </mxCell>
        <mxCell id="v_fGqSHIE8mmQ_CK-ytb-9" value="" style="endArrow=none;html=1;rounded=0;entryX=0.5;entryY=1;entryDx=0;entryDy=0;exitX=0.5;exitY=0;exitDx=0;exitDy=0;" edge="1" parent="1" source="v_fGqSHIE8mmQ_CK-ytb-6" target="v_fGqSHIE8mmQ_CK-ytb-5">
          <mxGeometry width="50" height="50" relative="1" as="geometry">
            <mxPoint x="390" y="400" as="sourcePoint" />
            <mxPoint x="440" y="350" as="targetPoint" />
          </mxGeometry>
        </mxCell>
        <mxCell id="v_fGqSHIE8mmQ_CK-ytb-10" value="" style="endArrow=none;html=1;rounded=0;exitX=1;exitY=0.5;exitDx=0;exitDy=0;" edge="1" parent="1" source="v_fGqSHIE8mmQ_CK-ytb-6">
          <mxGeometry width="50" height="50" relative="1" as="geometry">
            <mxPoint x="390" y="400" as="sourcePoint" />
            <mxPoint x="600" y="270" as="targetPoint" />
          </mxGeometry>
        </mxCell>
        <mxCell id="v_fGqSHIE8mmQ_CK-ytb-11" value="" style="endArrow=none;html=1;rounded=0;" edge="1" parent="1">
          <mxGeometry width="50" height="50" relative="1" as="geometry">
            <mxPoint x="240" y="270" as="sourcePoint" />
            <mxPoint x="382" y="269.5" as="targetPoint" />
          </mxGeometry>
        </mxCell>
        <mxCell id="v_fGqSHIE8mmQ_CK-ytb-15" value="T" style="text;html=1;align=center;verticalAlign=middle;resizable=0;points=[];autosize=1;strokeColor=none;fillColor=none;" vertex="1" parent="1">
          <mxGeometry x="324" y="240" width="30" height="30" as="geometry" />
        </mxCell>
        <mxCell id="v_fGqSHIE8mmQ_CK-ytb-16" value="F" style="text;html=1;align=center;verticalAlign=middle;resizable=0;points=[];autosize=1;strokeColor=none;fillColor=none;" vertex="1" parent="1">
          <mxGeometry x="490" y="240" width="30" height="30" as="geometry" />
        </mxCell>
        <mxCell id="v_fGqSHIE8mmQ_CK-ytb-17" value="" style="html=1;points=[[0,0,0,0,5],[0,1,0,0,-5],[1,0,0,0,5],[1,1,0,0,-5]];perimeter=orthogonalPerimeter;outlineConnect=0;targetShapes=umlLifeline;portConstraint=eastwest;newEdgeStyle={&quot;curved&quot;:0,&quot;rounded&quot;:0};direction=south;fillColor=#000000;" vertex="1" parent="1">
          <mxGeometry x="70" y="450" width="340" height="10" as="geometry" />
        </mxCell>
        <mxCell id="v_fGqSHIE8mmQ_CK-ytb-20" value="Manage user" style="rounded=1;whiteSpace=wrap;html=1;" vertex="1" parent="1">
          <mxGeometry x="30" y="510" width="120" height="60" as="geometry" />
        </mxCell>
        <mxCell id="v_fGqSHIE8mmQ_CK-ytb-21" value="Approve teacher applicants&amp;nbsp;" style="rounded=1;whiteSpace=wrap;html=1;" vertex="1" parent="1">
          <mxGeometry x="180" y="510" width="120" height="60" as="geometry" />
        </mxCell>
        <mxCell id="v_fGqSHIE8mmQ_CK-ytb-22" value="Monitor payments" style="rounded=1;whiteSpace=wrap;html=1;" vertex="1" parent="1">
          <mxGeometry x="330" y="510" width="120" height="60" as="geometry" />
        </mxCell>
        <mxCell id="v_fGqSHIE8mmQ_CK-ytb-23" value="Log out" style="rounded=1;whiteSpace=wrap;html=1;" vertex="1" parent="1">
          <mxGeometry x="190" y="750" width="120" height="60" as="geometry" />
        </mxCell>
        <mxCell id="v_fGqSHIE8mmQ_CK-ytb-24" value="" style="html=1;points=[[0,0,0,0,5],[0,1,0,0,-5],[1,0,0,0,5],[1,1,0,0,-5]];perimeter=orthogonalPerimeter;outlineConnect=0;targetShapes=umlLifeline;portConstraint=eastwest;newEdgeStyle={&quot;curved&quot;:0,&quot;rounded&quot;:0};direction=south;fillColor=#000000;" vertex="1" parent="1">
          <mxGeometry x="80" y="670" width="350" height="10" as="geometry" />
        </mxCell>
        <mxCell id="v_fGqSHIE8mmQ_CK-ytb-25" value="" style="ellipse;html=1;shape=endState;fillColor=#000000;strokeColor=#000000;" vertex="1" parent="1">
          <mxGeometry x="235" y="870" width="30" height="30" as="geometry" />
        </mxCell>
        <mxCell id="v_fGqSHIE8mmQ_CK-ytb-27" value="" style="endArrow=classic;html=1;rounded=0;exitX=0.425;exitY=0.983;exitDx=0;exitDy=0;exitPerimeter=0;" edge="1" parent="1" source="v_fGqSHIE8mmQ_CK-ytb-7" target="v_fGqSHIE8mmQ_CK-ytb-17">
          <mxGeometry width="50" height="50" relative="1" as="geometry">
            <mxPoint x="390" y="500" as="sourcePoint" />
            <mxPoint x="440" y="450" as="targetPoint" />
          </mxGeometry>
        </mxCell>
        <mxCell id="v_fGqSHIE8mmQ_CK-ytb-28" value="" style="endArrow=classic;html=1;rounded=0;" edge="1" parent="1">
          <mxGeometry width="50" height="50" relative="1" as="geometry">
            <mxPoint x="240" y="270" as="sourcePoint" />
            <mxPoint x="240" y="340" as="targetPoint" />
          </mxGeometry>
        </mxCell>
        <mxCell id="v_fGqSHIE8mmQ_CK-ytb-29" value="" style="endArrow=classic;html=1;rounded=0;entryX=0.5;entryY=0;entryDx=0;entryDy=0;" edge="1" parent="1" target="v_fGqSHIE8mmQ_CK-ytb-8">
          <mxGeometry width="50" height="50" relative="1" as="geometry">
            <mxPoint x="600" y="270" as="sourcePoint" />
            <mxPoint x="440" y="421" as="targetPoint" />
          </mxGeometry>
        </mxCell>
        <mxCell id="v_fGqSHIE8mmQ_CK-ytb-30" value="" style="endArrow=classic;html=1;rounded=0;exitX=1;exitY=0.118;exitDx=0;exitDy=0;exitPerimeter=0;" edge="1" parent="1" source="v_fGqSHIE8mmQ_CK-ytb-17">
          <mxGeometry width="50" height="50" relative="1" as="geometry">
            <mxPoint x="370" y="470" as="sourcePoint" />
            <mxPoint x="370" y="510" as="targetPoint" />
          </mxGeometry>
        </mxCell>
        <mxCell id="v_fGqSHIE8mmQ_CK-ytb-31" value="" style="endArrow=classic;html=1;rounded=0;exitX=0.425;exitY=0.983;exitDx=0;exitDy=0;exitPerimeter=0;" edge="1" parent="1">
          <mxGeometry width="50" height="50" relative="1" as="geometry">
            <mxPoint x="235" y="459" as="sourcePoint" />
            <mxPoint x="235" y="510" as="targetPoint" />
          </mxGeometry>
        </mxCell>
        <mxCell id="v_fGqSHIE8mmQ_CK-ytb-32" value="" style="endArrow=classic;html=1;rounded=0;exitX=0.425;exitY=0.983;exitDx=0;exitDy=0;exitPerimeter=0;" edge="1" parent="1">
          <mxGeometry width="50" height="50" relative="1" as="geometry">
            <mxPoint x="100" y="459" as="sourcePoint" />
            <mxPoint x="100" y="510" as="targetPoint" />
          </mxGeometry>
        </mxCell>
        <mxCell id="v_fGqSHIE8mmQ_CK-ytb-33" value="" style="endArrow=classic;html=1;rounded=0;exitX=0.425;exitY=0.983;exitDx=0;exitDy=0;exitPerimeter=0;entryX=0.5;entryY=0;entryDx=0;entryDy=0;" edge="1" parent="1" target="v_fGqSHIE8mmQ_CK-ytb-23">
          <mxGeometry width="50" height="50" relative="1" as="geometry">
            <mxPoint x="249.5" y="680" as="sourcePoint" />
            <mxPoint x="249.5" y="731" as="targetPoint" />
          </mxGeometry>
        </mxCell>
        <mxCell id="v_fGqSHIE8mmQ_CK-ytb-34" value="" style="endArrow=classic;html=1;rounded=0;" edge="1" parent="1">
          <mxGeometry width="50" height="50" relative="1" as="geometry">
            <mxPoint x="382" y="570" as="sourcePoint" />
            <mxPoint x="382" y="670" as="targetPoint" />
          </mxGeometry>
        </mxCell>
        <mxCell id="v_fGqSHIE8mmQ_CK-ytb-35" value="" style="endArrow=classic;html=1;rounded=0;" edge="1" parent="1">
          <mxGeometry width="50" height="50" relative="1" as="geometry">
            <mxPoint x="250" y="570" as="sourcePoint" />
            <mxPoint x="249.5" y="670" as="targetPoint" />
          </mxGeometry>
        </mxCell>
        <mxCell id="v_fGqSHIE8mmQ_CK-ytb-36" value="" style="endArrow=classic;html=1;rounded=0;exitX=0.675;exitY=1;exitDx=0;exitDy=0;exitPerimeter=0;" edge="1" parent="1" source="v_fGqSHIE8mmQ_CK-ytb-20">
          <mxGeometry width="50" height="50" relative="1" as="geometry">
            <mxPoint x="110" y="580" as="sourcePoint" />
            <mxPoint x="110" y="670" as="targetPoint" />
          </mxGeometry>
        </mxCell>
        <mxCell id="v_fGqSHIE8mmQ_CK-ytb-37" value="" style="endArrow=classic;html=1;rounded=0;exitX=0.5;exitY=1;exitDx=0;exitDy=0;entryX=0.5;entryY=0;entryDx=0;entryDy=0;" edge="1" parent="1" source="v_fGqSHIE8mmQ_CK-ytb-23">
          <mxGeometry width="50" height="50" relative="1" as="geometry">
            <mxPoint x="249.5" y="800" as="sourcePoint" />
            <mxPoint x="250" y="870" as="targetPoint" />
          </mxGeometry>
        </mxCell>
      </root>
    </mxGraphModel>
  </diagram>
</mxfile>
